<svg xmlns="http://www.w3.org/2000/svg" width="20" height="21" viewBox="0 0 20 21" fill="none">
  <path d="M2.38256 2.89835L12.8576 1.40168C12.9167 1.3932 12.9769 1.39753 13.0342 1.41437C13.0915 1.43121 13.1445 1.46017 13.1897 1.49929C13.2348 1.53841 13.271 1.58678 13.2958 1.64111C13.3206 1.69544 13.3334 1.75446 13.3334 1.81418V19.1867C13.3334 19.2463 13.3206 19.3053 13.2958 19.3595C13.2711 19.4138 13.235 19.4621 13.1899 19.5012C13.1449 19.5403 13.092 19.5693 13.0348 19.5862C12.9776 19.6031 12.9174 19.6075 12.8584 19.5992L2.38173 18.1025C2.18308 18.0742 2.0013 17.9752 1.8698 17.8236C1.7383 17.6721 1.6659 17.4782 1.66589 17.2775V3.72335C1.6659 3.52269 1.7383 3.32878 1.8698 3.17722C2.0013 3.02566 2.18391 2.92664 2.38256 2.89835ZM14.1667 3.00002H17.5001C17.7211 3.00002 17.933 3.08781 18.0893 3.24409C18.2456 3.40037 18.3334 3.61234 18.3334 3.83335V17.1667C18.3334 17.3877 18.2456 17.5997 18.0893 17.7559C17.933 17.9122 17.7211 18 17.5001 18H14.1667V3.00002ZM8.50006 10.5L10.8334 7.16668H8.83339L7.50006 9.07168L6.16673 7.16668H4.16673L6.50006 10.5L4.16673 13.8334H6.16673L7.50006 11.9284L8.83339 13.8334H10.8334L8.50006 10.5Z" fill="#0095D9"/>
</svg>