<svg width="24" height="25" viewBox="0 0 24 25" fill="none" xmlns="http://www.w3.org/2000/svg">
<circle cx="12" cy="12.5" r="12" fill="#333333"/>
<g clip-path="url(#clip0_344_571)">
<path d="M13.2 19.0997C12.8686 19.0997 12.6 18.8311 12.6 18.4997V15.8404C12.6 15.6228 12.5108 15.4148 12.3533 15.2647C11.9066 14.8393 11.1666 15.0627 11.0299 15.6642L10.9541 15.9974C10.8351 16.5214 10.3195 16.8544 9.79298 16.7476L7.19641 16.2207C6.86674 16.1538 6.65341 15.8325 6.71938 15.5027C6.78586 15.1703 7.11039 14.956 7.44223 15.0252L8.73078 15.2936C9.27543 15.4071 9.80797 15.0542 9.91578 14.5084L10.5168 11.466C10.5875 11.1079 10.2352 10.8127 9.89502 10.945C9.71714 11.0141 9.59998 11.1854 9.59998 11.3763V12.4997C9.59998 12.8311 9.33135 13.0997 8.99998 13.0997C8.6686 13.0997 8.39998 12.8311 8.39998 12.4997V10.938C8.39998 10.5385 8.63772 10.1774 9.00465 10.0195L10.77 9.25971C11.12 9.10971 11.3776 9.01211 11.5428 8.96691C11.7076 8.92211 11.86 8.89971 12 8.89971C12.21 8.89971 12.405 8.95471 12.585 9.06471C12.765 9.17471 12.91 9.31971 13.02 9.49971L13.62 10.4597C13.88 10.8797 14.2324 11.2247 14.6772 11.4947C14.9606 11.6666 15.2692 11.7837 15.6032 11.8462C15.9289 11.9071 16.2 12.1683 16.2 12.4997C16.2 12.8311 15.9301 13.1044 15.6017 13.0605C15.1633 13.0018 14.7454 12.8773 14.3478 12.6869C14.2325 12.6318 14.1209 12.5732 14.013 12.5111C13.5026 12.2171 12.732 12.4394 12.6165 13.017C12.5689 13.2552 12.6467 13.5013 12.8226 13.6689L13.4896 14.3041C13.6878 14.4929 13.8 14.7546 13.8 15.0283V18.4997C13.8 18.8311 13.5313 19.0997 13.2 19.0997ZM12.9 8.59971C12.57 8.59971 12.2876 8.48211 12.0528 8.24691C11.8176 8.01211 11.7 7.72971 11.7 7.39971C11.7 7.06971 11.8176 6.78711 12.0528 6.55191C12.2876 6.31711 12.57 6.19971 12.9 6.19971C13.23 6.19971 13.5126 6.31711 13.7478 6.55191C13.9826 6.78711 14.1 7.06971 14.1 7.39971C14.1 7.72971 13.9826 8.01211 13.7478 8.24691C13.5126 8.48211 13.23 8.59971 12.9 8.59971Z" fill="white"/>
</g>
<defs>
<clipPath id="clip0_344_571">
<rect width="14.4" height="14.4" fill="white" transform="translate(4.79999 5.2998)"/>
</clipPath>
</defs>
</svg>
