<svg width="100" height="100" viewBox="0 0 100 100" fill="none" xmlns="http://www.w3.org/2000/svg">
<circle cx="50" cy="50" r="50" fill="#333333"/>
<g clip-path="url(#clip0_344_900)">
<path d="M60.444 28C60.0377 28 58.937 28.4837 58.7358 28.5737C58.7145 28.5832 58.6936 28.5933 58.6728 28.6038L45.416 35.308C43.644 36.008 42.944 38.832 44.008 40.244L46.7884 44.2799C47.371 45.1255 47.0765 46.2907 46.1621 46.7581L34.432 52.7531C33.3129 53.3251 33.1799 54.8718 34.185 55.6264L39.0857 59.3056C39.6386 59.7206 40.3876 59.7596 40.9805 59.4042L49.1335 54.5163C49.6718 54.1936 50.3441 54.1937 50.8823 54.5166L58.8698 59.3091C59.5387 59.7104 60.395 59.605 60.9466 59.0534L62.9734 57.0266C63.5717 56.4283 63.639 55.4813 63.1314 54.8045L53.1483 41.4938C52.543 40.6867 52.7697 39.533 53.6355 39.015L62.244 33.864C64.356 32.8 64.016 31.048 64.016 29.984C64 29.144 62.576 28 60.444 28ZM69.008 40C68.0885 39.9992 67.1778 40.1795 66.328 40.5307C65.4782 40.8819 64.7058 41.397 64.0551 42.0466C63.4043 42.6962 62.8879 43.4677 62.5353 44.3169C62.1827 45.1661 62.0008 46.0765 62 46.996C61.9992 47.9155 62.1795 48.8262 62.5307 49.676C62.8819 50.5258 63.397 51.2982 64.0466 51.9489C64.6962 52.5997 65.4677 53.1161 66.3169 53.4687C67.1661 53.8213 68.0765 54.0032 68.996 54.004C70.853 54.0056 72.6347 53.2694 73.9489 51.9574C75.2632 50.6454 76.0024 48.865 76.004 47.008C76.0056 45.151 75.2694 43.3693 73.9574 42.0551C72.6454 40.7408 70.865 40.0016 69.008 40ZM30.8746 60.5248C30.3363 60.2018 29.6637 60.2018 29.1254 60.5248L20.8254 65.5048C20.3133 65.812 20 66.3654 20 66.9625V68.9975C20 70.3189 21.4416 71.1351 22.5746 70.4552L29.1254 66.5248C29.6637 66.2018 30.3363 66.2018 30.8746 66.5248L39.1257 71.4754C39.6639 71.7983 40.3362 71.7984 40.8745 71.4757L49.1335 66.5243C49.6718 66.2016 50.3441 66.2017 50.8823 66.5246L59.0273 71.4116C59.6203 71.7674 60.3696 71.7285 60.9226 71.3134L67.1593 66.6311C67.6745 66.2444 68.364 66.182 68.9402 66.4701L77.5397 70.7699C78.6701 71.335 80 70.5131 80 69.2493V67.0507C80 66.4067 79.6362 65.8181 79.0603 65.5301L68.9402 60.4701C68.364 60.182 67.6745 60.2444 67.1593 60.6311L60.9226 65.3134C60.3696 65.7285 59.6203 65.7674 59.0273 65.4116L50.8823 60.5246C50.3441 60.2017 49.6718 60.2016 49.1335 60.5243L40.8745 65.4757C40.3362 65.7984 39.6639 65.7983 39.1257 65.4754L30.8746 60.5248Z" fill="white"/>
</g>
<defs>
<clipPath id="clip0_344_900">
<rect width="60" height="60" fill="white" transform="translate(20 20)"/>
</clipPath>
</defs>
</svg>
