<svg xmlns="http://www.w3.org/2000/svg" width="16" height="21" viewBox="0 0 16 21" fill="none">
  <path d="M5 3.5H3C2.46957 3.5 1.96086 3.71071 1.58579 4.08579C1.21071 4.46086 1 4.96957 1 5.5V17.5C1 18.0304 1.21071 18.5391 1.58579 18.9142C1.96086 19.2893 2.46957 19.5 3 19.5H13C13.5304 19.5 14.0391 19.2893 14.4142 18.9142C14.7893 18.5391 15 18.0304 15 17.5V5.5C15 4.96957 14.7893 4.46086 14.4142 4.08579C14.0391 3.71071 13.5304 3.5 13 3.5H11M5 3.5C5 4.03043 5.21071 4.53914 5.58579 4.91421C5.96086 5.28929 6.46957 5.5 7 5.5H9C9.53043 5.5 10.0391 5.28929 10.4142 4.91421C10.7893 4.53914 11 4.03043 11 3.5M5 3.5C5 2.96957 5.21071 2.46086 5.58579 2.08579C5.96086 1.71071 6.46957 1.5 7 1.5H9C9.53043 1.5 10.0391 1.71071 10.4142 2.08579C10.7893 2.46086 11 2.96957 11 3.5M8 10.5H11M8 14.5H11M5 10.5H5.01M5 14.5H5.01" stroke="#0095D9" stroke-width="1.8" stroke-linecap="round" stroke-linejoin="round"/>
</svg>